<?xml version="1.0" encoding="UTF-8"?>
<svg xmlns="http://www.w3.org/2000/svg" xmlns:xlink="http://www.w3.org/1999/xlink" width="16pt" height="16pt" viewBox="0 0 16 16" version="1.1">
<g id="surface1">
<path style=" stroke:none;fill-rule:nonzero;fill:rgb(70.196078%,25.098039%,29.019608%);fill-opacity:1;" d="M 11.882812 16 L 4.117188 16 C 3.863281 16 3.65625 15.792969 3.65625 15.539062 L 3.65625 11.875 C 3.65625 9.480469 5.605469 7.53125 8 7.53125 C 8.253906 7.53125 8.460938 7.738281 8.460938 7.992188 C 8.460938 8.246094 8.253906 8.453125 8 8.453125 C 6.113281 8.453125 4.574219 9.988281 4.574219 11.875 L 4.574219 15.082031 L 11.425781 15.082031 L 11.425781 11.875 C 11.425781 11.136719 11.191406 10.429688 10.753906 9.839844 C 10.601562 9.636719 10.644531 9.347656 10.847656 9.195312 C 11.050781 9.042969 11.339844 9.085938 11.492188 9.292969 C 12.046875 10.042969 12.34375 10.9375 12.34375 11.875 L 12.34375 15.539062 C 12.34375 15.792969 12.136719 16 11.882812 16 Z M 11.882812 16 "/>
<path style=" stroke:none;fill-rule:nonzero;fill:rgb(70.196078%,25.098039%,29.019608%);fill-opacity:1;" d="M 12.648438 16 L 3.351562 16 C 3.097656 16 2.894531 15.792969 2.894531 15.539062 C 2.894531 15.285156 3.097656 15.082031 3.351562 15.082031 L 12.648438 15.082031 C 12.902344 15.082031 13.105469 15.285156 13.105469 15.539062 C 13.105469 15.792969 12.902344 16 12.648438 16 Z M 12.648438 16 "/>
<path style=" stroke:none;fill-rule:nonzero;fill:rgb(95.686275%,69.803922%,69.019608%);fill-opacity:1;" d="M 8 8.007812 C 10.144531 8.007812 11.882812 6.269531 11.882812 4.125 L 11.882812 0.460938 L 4.117188 0.460938 L 4.117188 4.125 C 4.117188 6.269531 5.855469 8.007812 8 8.007812 Z M 8 8.007812 "/>
<path style=" stroke:none;fill-rule:nonzero;fill:rgb(70.196078%,25.098039%,29.019608%);fill-opacity:1;" d="M 8 8.46875 C 5.605469 8.46875 3.65625 6.519531 3.65625 4.125 L 3.65625 0.460938 C 3.65625 0.207031 3.863281 0 4.117188 0 L 11.882812 0 C 12.136719 0 12.34375 0.207031 12.34375 0.460938 L 12.34375 4.125 C 12.34375 6.519531 10.394531 8.46875 8 8.46875 Z M 4.574219 0.917969 L 4.574219 4.125 C 4.574219 6.011719 6.113281 7.546875 8 7.546875 C 9.886719 7.546875 11.425781 6.011719 11.425781 4.125 L 11.425781 0.917969 Z M 4.574219 0.917969 "/>
<path style=" stroke:none;fill-rule:nonzero;fill:rgb(70.196078%,25.098039%,29.019608%);fill-opacity:1;" d="M 12.648438 0.917969 L 3.351562 0.917969 C 3.097656 0.917969 2.894531 0.714844 2.894531 0.460938 C 2.894531 0.207031 3.097656 0 3.351562 0 L 12.648438 0 C 12.902344 0 13.105469 0.207031 13.105469 0.460938 C 13.105469 0.714844 12.902344 0.917969 12.648438 0.917969 Z M 12.648438 0.917969 "/>
<path style=" stroke:none;fill-rule:nonzero;fill:rgb(70.196078%,25.098039%,29.019608%);fill-opacity:1;" d="M 8 11.308594 C 7.746094 11.308594 7.539062 11.101562 7.539062 10.847656 L 7.539062 7.992188 C 7.539062 7.738281 7.746094 7.53125 8 7.53125 C 8.253906 7.53125 8.460938 7.738281 8.460938 7.992188 L 8.460938 10.847656 C 8.460938 11.101562 8.253906 11.308594 8 11.308594 Z M 8 11.308594 "/>
<path style=" stroke:none;fill-rule:nonzero;fill:rgb(70.196078%,25.098039%,29.019608%);fill-opacity:1;" d="M 6.484375 2.785156 L 4.207031 2.785156 C 3.953125 2.785156 3.75 2.578125 3.75 2.324219 C 3.75 2.070312 3.953125 1.863281 4.207031 1.863281 L 6.484375 1.863281 C 6.738281 1.863281 6.941406 2.070312 6.941406 2.324219 C 6.941406 2.578125 6.738281 2.785156 6.484375 2.785156 Z M 6.484375 2.785156 "/>
<path style=" stroke:none;fill-rule:nonzero;fill:rgb(70.196078%,25.098039%,29.019608%);fill-opacity:1;" d="M 11.894531 14.136719 L 9.621094 14.136719 C 9.367188 14.136719 9.160156 13.929688 9.160156 13.675781 C 9.160156 13.421875 9.367188 13.214844 9.621094 13.214844 L 11.894531 13.214844 C 12.148438 13.214844 12.355469 13.421875 12.355469 13.675781 C 12.355469 13.929688 12.148438 14.136719 11.894531 14.136719 Z M 11.894531 14.136719 "/>
</g>
</svg>
