<?xml version="1.0" encoding="UTF-8"?>
<svg xmlns="http://www.w3.org/2000/svg" xmlns:xlink="http://www.w3.org/1999/xlink" width="16pt" height="16pt" viewBox="0 0 16 16" version="1.1">
<g id="surface1">
<path style=" stroke:none;fill-rule:nonzero;fill:rgb(100%,75.686275%,5.098039%);fill-opacity:1;" d="M 10.34375 0.890625 C 9.800781 0.890625 9.359375 1.332031 9.359375 1.875 C 9.359375 2.414062 9.800781 2.855469 10.34375 2.855469 C 10.886719 2.855469 11.324219 2.414062 11.324219 1.875 C 11.328125 1.332031 10.886719 0.890625 10.34375 0.890625 Z M 10.34375 0.890625 "/>
<path style=" stroke:none;fill-rule:nonzero;fill:rgb(9.803922%,30.980392%,50.980392%);fill-opacity:1;" d="M 10.34375 0.00390625 C 9.308594 0.00390625 8.472656 0.84375 8.472656 1.875 C 8.472656 2.90625 9.3125 3.746094 10.34375 3.746094 C 11.378906 3.746094 12.21875 2.90625 12.21875 1.875 C 12.21875 0.84375 11.375 0.00390625 10.34375 0.00390625 Z M 10.34375 2.859375 C 9.800781 2.859375 9.359375 2.417969 9.359375 1.875 C 9.359375 1.332031 9.800781 0.894531 10.34375 0.894531 C 10.886719 0.894531 11.324219 1.332031 11.324219 1.875 C 11.328125 2.417969 10.886719 2.859375 10.34375 2.859375 Z M 10.34375 2.859375 "/>
<path style=" stroke:none;fill-rule:nonzero;fill:rgb(33.72549%,67.45098%,87.843137%);fill-opacity:1;" d="M 12.503906 5.679688 C 12.503906 5.34375 12.230469 5.074219 11.898438 5.074219 L 11.671875 5.074219 L 10.75 7.3125 C 10.59375 7.691406 10.078125 7.667969 9.929688 7.3125 L 9.007812 5.070312 L 8.785156 5.070312 C 8.449219 5.070312 8.179688 5.34375 8.179688 5.675781 L 8.179688 10.53125 L 12.5 10.53125 L 12.5 5.679688 Z M 12.503906 5.679688 "/>
<path style=" stroke:none;fill-rule:nonzero;fill:rgb(100%,75.686275%,5.098039%);fill-opacity:1;" d="M 8.875 15.113281 L 9.898438 15.113281 L 9.898438 13.046875 C 9.898438 12.800781 10.09375 12.601562 10.34375 12.601562 C 10.585938 12.601562 10.789062 12.800781 10.789062 13.046875 L 10.789062 15.113281 L 11.808594 15.113281 L 11.808594 11.421875 L 8.871094 11.421875 L 8.871094 15.113281 Z M 8.875 15.113281 "/>
<path style=" stroke:none;fill-rule:nonzero;fill:rgb(9.803922%,30.980392%,50.980392%);fill-opacity:1;" d="M 11.898438 4.183594 L 11.378906 4.183594 C 11.199219 4.183594 11.039062 4.292969 10.972656 4.457031 L 10.347656 5.976562 L 9.71875 4.457031 C 9.652344 4.292969 9.492188 4.183594 9.3125 4.183594 L 8.789062 4.183594 C 7.964844 4.183594 7.296875 4.855469 7.296875 5.675781 L 7.296875 10.976562 C 7.296875 11.222656 7.492188 11.421875 7.742188 11.421875 L 7.988281 11.421875 L 7.988281 15.554688 C 7.988281 15.800781 8.1875 16 8.433594 16 L 12.261719 16 C 12.503906 16 12.707031 15.800781 12.707031 15.554688 L 12.707031 11.421875 L 12.949219 11.421875 C 13.195312 11.421875 13.394531 11.226562 13.394531 10.976562 L 13.394531 5.679688 C 13.394531 4.855469 12.722656 4.183594 11.898438 4.183594 Z M 11.816406 15.113281 L 10.792969 15.113281 L 10.792969 13.046875 C 10.792969 12.800781 10.59375 12.601562 10.347656 12.601562 C 10.101562 12.601562 9.902344 12.800781 9.902344 13.046875 L 9.902344 15.113281 L 8.878906 15.113281 L 8.878906 11.421875 L 11.816406 11.421875 Z M 8.183594 10.535156 L 8.183594 5.679688 C 8.183594 5.34375 8.453125 5.074219 8.789062 5.074219 L 9.011719 5.074219 L 9.933594 7.316406 C 10.085938 7.667969 10.597656 7.691406 10.753906 7.316406 L 11.679688 5.078125 L 11.902344 5.078125 C 12.238281 5.078125 12.507812 5.347656 12.507812 5.683594 L 12.507812 10.539062 L 8.183594 10.539062 Z M 8.183594 10.535156 "/>
<path style=" stroke:none;fill-rule:nonzero;fill:rgb(9.803922%,30.980392%,50.980392%);fill-opacity:1;" d="M 5.417969 0.890625 C 5.664062 0.890625 5.863281 0.691406 5.863281 0.445312 C 5.863281 0.199219 5.660156 0 5.417969 0 L 3.050781 0 C 2.804688 0 2.605469 0.199219 2.605469 0.445312 L 2.605469 15.554688 C 2.605469 15.800781 2.800781 16 3.050781 16 L 5.417969 16 C 5.664062 16 5.863281 15.800781 5.863281 15.554688 C 5.863281 15.308594 5.664062 15.109375 5.417969 15.109375 L 3.496094 15.109375 L 3.496094 13.863281 L 5.417969 13.863281 C 5.664062 13.863281 5.863281 13.664062 5.863281 13.417969 C 5.863281 13.171875 5.664062 12.972656 5.417969 12.972656 L 3.496094 12.972656 L 3.496094 11.667969 L 4.414062 11.667969 C 4.660156 11.667969 4.859375 11.46875 4.859375 11.222656 C 4.859375 10.972656 4.660156 10.777344 4.414062 10.777344 L 3.496094 10.777344 L 3.496094 9.539062 L 5.417969 9.539062 C 5.664062 9.539062 5.863281 9.339844 5.863281 9.09375 C 5.863281 8.847656 5.664062 8.648438 5.417969 8.648438 L 3.496094 8.648438 L 3.496094 7.339844 L 4.414062 7.339844 C 4.660156 7.339844 4.859375 7.140625 4.859375 6.894531 C 4.859375 6.648438 4.660156 6.449219 4.414062 6.449219 L 3.496094 6.449219 L 3.496094 5.214844 L 5.417969 5.214844 C 5.664062 5.214844 5.863281 5.015625 5.863281 4.769531 C 5.863281 4.523438 5.664062 4.324219 5.417969 4.324219 L 3.496094 4.324219 L 3.496094 3.015625 L 4.414062 3.015625 C 4.660156 3.015625 4.859375 2.816406 4.859375 2.570312 C 4.859375 2.320312 4.660156 2.125 4.414062 2.125 L 3.496094 2.125 L 3.496094 0.871094 L 5.417969 0.871094 Z M 5.417969 0.890625 "/>
</g>
</svg>
