<?xml version="1.0" encoding="UTF-8"?>
<svg xmlns="http://www.w3.org/2000/svg" xmlns:xlink="http://www.w3.org/1999/xlink" width="16pt" height="16pt" viewBox="0 0 16 16" version="1.1">
<g id="surface1">
<path style=" stroke:none;fill-rule:nonzero;fill:rgb(91.764706%,35.294118%,27.843137%);fill-opacity:1;" d="M 3.15625 5.0625 L 12.554688 5.023438 C 12.554688 5.023438 11.773438 1.542969 7.535156 1.765625 C 3.296875 1.992188 3.15625 5.0625 3.15625 5.0625 Z M 3.15625 5.0625 "/>
<path style=" stroke:none;fill-rule:nonzero;fill:rgb(82.352941%,18.431373%,15.294118%);fill-opacity:1;" d="M 2.851562 5.140625 C 6.109375 4.660156 9.859375 4.613281 13.109375 5.140625 C 12.996094 5.355469 13.761719 6.699219 13.335938 6.894531 C 9.734375 6.089844 6.25 6.550781 2.628906 6.894531 C 2.867188 6.578125 2.289062 5.371094 2.851562 5.140625 Z M 2.851562 5.140625 "/>
<path style=" stroke:none;fill-rule:nonzero;fill:rgb(94.509804%,70.196078%,10.980392%);fill-opacity:1;" d="M 8.800781 5.558594 C 8.800781 6 8.441406 6.355469 8 6.355469 C 7.558594 6.355469 7.199219 6 7.199219 5.558594 C 7.199219 5.117188 7.558594 4.757812 8 4.757812 C 8.441406 4.757812 8.800781 5.117188 8.800781 5.558594 Z M 8.800781 5.558594 "/>
<path style=" stroke:none;fill-rule:nonzero;fill:rgb(36.078431%,61.960784%,19.215686%);fill-opacity:1;" d="M 6.417969 1.933594 C 6.640625 1.988281 8.308594 1.542969 9.480469 1.988281 L 9.480469 4.714844 L 6.480469 4.714844 Z M 6.417969 1.933594 "/>
<path style=" stroke:none;fill-rule:nonzero;fill:rgb(98.823529%,91.764706%,16.862745%);fill-opacity:1;" d="M 11.820312 6.671875 C 12.578125 6.863281 12.273438 8.210938 12.273438 9.074219 C 12.273438 12.039062 10.359375 14.445312 7.996094 14.445312 C 5.636719 14.445312 3.722656 12.039062 3.722656 9.074219 C 3.71875 8.222656 3.878906 7.382812 4.203125 6.59375 C 4.203125 6.59375 10.089844 6.230469 11.820312 6.671875 Z M 11.820312 6.671875 "/>
<path style=" stroke:none;fill-rule:nonzero;fill:rgb(94.509804%,70.196078%,10.980392%);fill-opacity:1;" d="M 2.890625 6.890625 C 2.222656 8.445312 3.796875 9.523438 3.4375 9.351562 L 4 6.667969 Z M 2.890625 6.890625 "/>
<path style=" stroke:none;fill-rule:nonzero;fill:rgb(94.509804%,70.196078%,10.980392%);fill-opacity:1;" d="M 11.777344 6.667969 L 12.421875 9.351562 C 12.0625 9.523438 13.777344 8.445312 13.109375 6.890625 Z M 11.777344 6.667969 "/>
<path style=" stroke:none;fill-rule:nonzero;fill:rgb(0%,0%,0%);fill-opacity:1;" d="M 7.117188 9.074219 C 7.117188 9.425781 6.835938 9.707031 6.488281 9.707031 C 6.136719 9.707031 5.855469 9.425781 5.855469 9.074219 C 5.855469 8.726562 6.136719 8.445312 6.488281 8.445312 C 6.835938 8.445312 7.117188 8.726562 7.117188 9.074219 "/>
<path style=" stroke:none;fill-rule:nonzero;fill:rgb(0%,0%,0%);fill-opacity:1;" d="M 10.144531 9.074219 C 10.144531 9.425781 9.863281 9.707031 9.511719 9.707031 C 9.164062 9.707031 8.882812 9.425781 8.882812 9.074219 C 8.882812 8.726562 9.164062 8.445312 9.511719 8.445312 C 9.863281 8.445312 10.144531 8.726562 10.144531 9.074219 "/>
<path style="fill:none;stroke-width:2;stroke-linecap:round;stroke-linejoin:miter;stroke:rgb(0%,0%,0%);stroke-opacity:1;stroke-miterlimit:10;" d="M 31.183594 52.734375 C 31.148438 52.751953 36.210938 55.564453 40.78125 52.734375 " transform="matrix(0.222222,0,0,0.222222,0,0)"/>
<path style="fill:none;stroke-width:2;stroke-linecap:round;stroke-linejoin:miter;stroke:rgb(0%,0%,0%);stroke-opacity:1;stroke-miterlimit:10;" d="M 25.892578 34.066406 C 28.054688 33.433594 30.339844 33.433594 32.501953 34.066406 " transform="matrix(0.222222,0,0,0.222222,0,0)"/>
<path style="fill:none;stroke-width:2;stroke-linecap:round;stroke-linejoin:miter;stroke:rgb(0%,0%,0%);stroke-opacity:1;stroke-miterlimit:10;" d="M 39.515625 34.066406 C 41.660156 33.433594 43.945312 33.433594 46.107422 34.066406 " transform="matrix(0.222222,0,0,0.222222,0,0)"/>
<path style="fill:none;stroke-width:2;stroke-linecap:round;stroke-linejoin:round;stroke:rgb(0%,0%,0%);stroke-opacity:1;stroke-miterlimit:4;" d="M 56.988281 22.007812 C 56.988281 22.007812 54.052734 7.945312 35.736328 7.945312 C 17.419922 7.945312 14.660156 22.007812 14.660156 22.007812 " transform="matrix(0.222222,0,0,0.222222,0,0)"/>
<path style="fill:none;stroke-width:2;stroke-linecap:round;stroke-linejoin:round;stroke:rgb(0%,0%,0%);stroke-opacity:1;stroke-miterlimit:4;" d="M 42.662109 21.005859 L 42.662109 9.597656 " transform="matrix(0.222222,0,0,0.222222,0,0)"/>
<path style="fill:none;stroke-width:2;stroke-linecap:round;stroke-linejoin:round;stroke:rgb(0%,0%,0%);stroke-opacity:1;stroke-miterlimit:4;" d="M 59.994141 31.025391 C 36.457031 26.4375 11.794922 30.849609 11.8125 31.025391 C 11.302734 28.283203 11.707031 25.646484 12.832031 23.132812 C 42.679688 18.228516 58.447266 23.308594 58.992188 23.132812 C 59.501953 24.539062 59.941406 25.945312 60.134766 27.351562 C 60.310547 28.582031 60.292969 29.8125 59.994141 31.025391 Z M 59.994141 31.025391 " transform="matrix(0.222222,0,0,0.222222,0,0)"/>
<path style="fill:none;stroke-width:2;stroke-linecap:round;stroke-linejoin:round;stroke:rgb(0%,0%,0%);stroke-opacity:1;stroke-miterlimit:4;" d="M 28.845703 8.947266 L 28.845703 21.216797 " transform="matrix(0.222222,0,0,0.222222,0,0)"/>
<path style="fill:none;stroke-width:2;stroke-linecap:round;stroke-linejoin:round;stroke:rgb(0%,0%,0%);stroke-opacity:1;stroke-miterlimit:4;" d="M 55.898438 41.34375 C 55.722656 41.414062 60.521484 38.724609 58.992188 31.042969 " transform="matrix(0.222222,0,0,0.222222,0,0)"/>
<path style="fill:none;stroke-width:2;stroke-linecap:round;stroke-linejoin:round;stroke:rgb(0%,0%,0%);stroke-opacity:1;stroke-miterlimit:4;" d="M 18.632812 30.023438 C 17.824219 31.605469 17.296875 33.292969 17.068359 35.033203 C 16.716797 36.949219 16.541016 38.882812 16.558594 40.833984 L 16.558594 41.167969 C 16.716797 54.439453 25.224609 65.003906 35.806641 65.003906 C 46.371094 65.003906 54.878906 54.439453 55.054688 41.167969 L 55.054688 40.833984 C 55.054688 38.882812 54.878906 36.949219 54.544922 35.033203 C 54.298828 33.292969 53.771484 31.605469 52.980469 30.023438 " transform="matrix(0.222222,0,0,0.222222,0,0)"/>
<path style="fill:none;stroke-width:2;stroke-linecap:round;stroke-linejoin:round;stroke:rgb(0%,0%,0%);stroke-opacity:1;stroke-miterlimit:4;" d="M 12.603516 31.025391 C 11.074219 38.724609 15.873047 41.414062 15.697266 41.326172 " transform="matrix(0.222222,0,0,0.222222,0,0)"/>
<path style="fill:none;stroke-width:2;stroke-linecap:butt;stroke-linejoin:miter;stroke:rgb(0%,0%,0%);stroke-opacity:1;stroke-miterlimit:10;" d="M 39.955078 24.978516 C 39.955078 27.158203 38.179688 28.933594 36 28.933594 C 33.820312 28.933594 32.044922 27.158203 32.044922 24.978516 C 32.044922 22.798828 33.820312 21.023438 36 21.023438 C 38.179688 21.023438 39.955078 22.798828 39.955078 24.978516 Z M 39.955078 24.978516 " transform="matrix(0.222222,0,0,0.222222,0,0)"/>
</g>
</svg>
