<?xml version="1.0" encoding="UTF-8"?>
<svg xmlns="http://www.w3.org/2000/svg" xmlns:xlink="http://www.w3.org/1999/xlink" width="16pt" height="16pt" viewBox="0 0 16 16" version="1.1">
<g id="surface1">
<path style=" stroke:none;fill-rule:nonzero;fill:rgb(100%,100%,100%);fill-opacity:1;" d="M 9.75 4.75 C 9.75 3.785156 8.964844 3 8 3 C 7.035156 3 6.25 3.785156 6.25 4.75 C 6.25 5.714844 7.035156 6.5 8 6.5 C 8.964844 6.5 9.75 5.714844 9.75 4.75 Z M 9.75 4.75 "/>
<path style=" stroke:none;fill-rule:nonzero;fill:rgb(96.470588%,57.647059%,28.235294%);fill-opacity:1;" d="M 7.5 7.453125 C 6.222656 7.214844 5.25 6.09375 5.25 4.75 L 5.25 1 L 2.5 1 C 1.949219 1 1.5 1.449219 1.5 2 L 1.5 15 L 7.5 15 Z M 7.5 7.453125 "/>
<path style=" stroke:none;fill-rule:nonzero;fill:rgb(43.137255%,74.901961%,36.470588%);fill-opacity:1;" d="M 9.75 2.628906 L 9.75 1 L 6.25 1 L 6.25 2.628906 C 6.726562 2.238281 7.335938 2 8 2 C 8.664062 2 9.273438 2.238281 9.75 2.628906 Z M 9.75 2.628906 "/>
<path style=" stroke:none;fill-rule:nonzero;fill:rgb(96.470588%,57.647059%,28.235294%);fill-opacity:1;" d="M 14.5 2 C 14.5 1.449219 14.050781 1 13.5 1 L 10.75 1 L 10.75 4.75 C 10.75 6.09375 9.777344 7.214844 8.5 7.453125 L 8.5 15 L 14.5 15 Z M 14.5 2 "/>
<path style=" stroke:none;fill-rule:nonzero;fill:rgb(0%,23.137255%,32.941176%);fill-opacity:1;" d="M 8 5.25 C 7.722656 5.25 7.5 5.027344 7.5 4.75 L 7.5 4 C 7.5 3.722656 7.722656 3.5 8 3.5 C 8.277344 3.5 8.5 3.722656 8.5 4 L 8.5 4.75 C 8.5 5.027344 8.277344 5.25 8 5.25 Z M 8 5.25 "/>
<path style=" stroke:none;fill-rule:nonzero;fill:rgb(0%,23.137255%,32.941176%);fill-opacity:1;" d="M 13.5 0 L 2.5 0 C 1.398438 0 0.5 0.898438 0.5 2 L 0.5 15.5 C 0.5 15.777344 0.722656 16 1 16 L 15 16 C 15.277344 16 15.5 15.777344 15.5 15.5 L 15.5 2 C 15.5 0.898438 14.601562 0 13.5 0 Z M 9.75 1 L 9.75 2.628906 C 9.273438 2.238281 8.664062 2 8 2 C 7.335938 2 6.726562 2.238281 6.25 2.628906 L 6.25 1 Z M 8 6.5 C 7.035156 6.5 6.25 5.714844 6.25 4.75 C 6.25 3.785156 7.035156 3 8 3 C 8.964844 3 9.75 3.785156 9.75 4.75 C 9.75 5.714844 8.964844 6.5 8 6.5 Z M 1.5 2 C 1.5 1.449219 1.949219 1 2.5 1 L 5.25 1 L 5.25 4.75 C 5.25 6.09375 6.222656 7.214844 7.5 7.453125 L 7.5 15 L 1.5 15 Z M 14.5 15 L 8.5 15 L 8.5 7.453125 C 9.777344 7.214844 10.75 6.09375 10.75 4.75 L 10.75 1 L 13.5 1 C 14.050781 1 14.5 1.449219 14.5 2 Z M 14.5 15 "/>
</g>
</svg>
